<svg width="480" height="480" viewBox="0 0 480 480" fill="none" xmlns="http://www.w3.org/2000/svg">
  <rect width="480" height="480" rx="72" fill="#0B1220"/>
  <rect x="68" y="80" width="74" height="320" rx="20" fill="#F4F7FB"/>
  <rect x="338" y="80" width="74" height="320" rx="20" fill="#F4F7FB"/>
  <path d="M142 118C142 103.641 153.641 92 168 92H176.977C186.926 92 196.028 97.6187 200.501 106.52L240 185.174L279.499 106.52C283.972 97.6187 293.074 92 303.023 92H312C326.359 92 338 103.641 338 118V162.288C338 166.322 337.062 170.301 335.261 173.909L244.261 355.909C239.859 364.715 230.861 370.289 221.023 370.289C211.185 370.289 202.187 364.715 197.785 355.909L106.785 173.909C104.984 170.301 104.046 166.322 104.046 162.288L142 118Z" fill="#F4F7FB"/>
  <path d="M192 243L240 339L288 243" stroke="#0B1220" stroke-width="20" stroke-linecap="round" stroke-linejoin="round"/>
  <text x="240" y="430" fill="#8EA0BA" font-family="Avenir Next, PingFang SC, Noto Sans SC, sans-serif" font-size="36" font-weight="700" letter-spacing="6" text-anchor="middle">MONSCAO</text>
</svg>
